<mxfile host="app.diagrams.net" modified="2023-01-30T13:45:33.969Z" agent="5.0 (Windows)" etag="GcEY-TfbxYB3F0qwh_gI" version="20.8.13" type="github">
  <diagram name="Page-1" id="eRlUlhKt91pUqGxdeJSS">
    <mxGraphModel dx="2074" dy="1142" grid="1" gridSize="10" guides="1" tooltips="1" connect="1" arrows="1" fold="1" page="1" pageScale="1" pageWidth="827" pageHeight="1169" math="0" shadow="0">
      <root>
        <mxCell id="0" />
        <mxCell id="1" parent="0" />
        <mxCell id="FjKKCrmrNw2joXMxova--1" value="" style="html=1;shadow=0;dashed=0;align=center;verticalAlign=middle;shape=mxgraph.arrows2.arrow;dy=0.6;dx=40;flipH=1;notch=0;" vertex="1" parent="1">
          <mxGeometry x="470" y="220" width="160" height="70" as="geometry" />
        </mxCell>
        <mxCell id="FjKKCrmrNw2joXMxova--2" value="" style="html=1;shadow=0;dashed=0;align=center;verticalAlign=middle;shape=mxgraph.arrows2.bendDoubleArrow;dy=15;dx=38;arrowHead=55;rounded=1;" vertex="1" parent="1">
          <mxGeometry x="230" y="220" width="100" height="100" as="geometry" />
        </mxCell>
      </root>
    </mxGraphModel>
  </diagram>
</mxfile>
